<?xml version="1.0" encoding="utf-8"?>
<!-- Generator: Adobe Illustrator 25.3.1, SVG Export Plug-In . SVG Version: 6.00 Build 0)  -->
<svg version="1.1" id="Layer_1" xmlns="http://www.w3.org/2000/svg" xmlns:xlink="http://www.w3.org/1999/xlink" x="0px" y="0px"
	 viewBox="0 0 115 14.6" style="enable-background:new 0 0 115 14.6;" xml:space="preserve">
<style type="text/css">
	.st0{fill:#FFFFFF;}
</style>
<g>
	<path class="st0" d="M51.8,6.5c0.3,0.2,0.6,0.4,1,0.5s0.7,0.2,1.1,0.3c0.3,0.1,0.5,0.1,0.8,0.2c0.2,0.1,0.5,0.2,0.7,0.3
		s0.4,0.3,0.5,0.5s0.2,0.4,0.2,0.7c0,0.5-0.2,0.9-0.6,1.2c-0.4,0.3-0.9,0.4-1.6,0.4c-0.5,0-1-0.1-1.5-0.2s-0.9-0.3-1.4-0.6V11
		c0.4,0.2,0.9,0.4,1.3,0.5c0.5,0.1,1,0.2,1.5,0.2c0.7,0,1.4-0.1,1.9-0.3c0.5-0.2,1-0.5,1.2-1c0.3-0.4,0.4-0.9,0.4-1.5
		c0-0.4-0.1-0.7-0.2-1s-0.3-0.5-0.5-0.7s-0.4-0.4-0.7-0.5c-0.3-0.1-0.5-0.3-0.8-0.3c-0.3-0.1-0.6-0.2-0.9-0.3s-0.6-0.2-0.8-0.2
		c-0.2-0.1-0.5-0.2-0.7-0.3s-0.3-0.2-0.4-0.4s-0.1-0.4-0.1-0.6c0-0.5,0.2-0.8,0.5-1.1c0.4-0.3,0.9-0.4,1.5-0.4c0.5,0,1,0.1,1.5,0.2
		c0.4,0.1,0.8,0.3,1.1,0.5V2.7c-0.4-0.2-0.8-0.4-1.2-0.4c-0.5-0.1-0.9-0.2-1.4-0.2c-0.7,0-1.3,0.1-1.8,0.3s-0.9,0.5-1.2,0.9
		s-0.4,0.9-0.4,1.4c0,0.4,0.1,0.8,0.2,1.1C51.3,6.1,51.5,6.3,51.8,6.5z"/>
	<path class="st0" d="M58.6,9.7c0,0.7,0.2,1.2,0.5,1.5s0.8,0.5,1.5,0.5c0.2,0,0.5,0,0.7-0.1s0.5-0.1,0.7-0.2v-1
		c-0.4,0.2-0.8,0.3-1.1,0.3c-0.4,0-0.6-0.1-0.8-0.3c-0.2-0.2-0.3-0.5-0.3-0.8V5.8h2v-1h-2v-2l-1.2,0.3v1.8h-1.3v1h1.3
		C58.6,5.9,58.6,9.7,58.6,9.7z"/>
	<path class="st0" d="M64.3,11.4c0.4,0.2,0.8,0.2,1.3,0.2s0.9-0.1,1.3-0.2c0.4-0.2,0.7-0.4,1-0.7c0.3-0.3,0.5-0.7,0.6-1.1
		c0.2-0.4,0.2-0.9,0.2-1.5c0-0.7-0.1-1.3-0.4-1.8s-0.6-0.9-1.1-1.2s-1-0.4-1.7-0.4s-1.2,0.1-1.7,0.4c-0.5,0.3-0.8,0.7-1.1,1.2
		c-0.3,0.5-0.4,1.1-0.4,1.8c0,0.5,0.1,1,0.2,1.5c0.1,0.4,0.4,0.8,0.6,1.1C63.6,11,64,11.3,64.3,11.4z M63.9,6.8
		c0.2-0.4,0.4-0.7,0.7-0.9c0.3-0.2,0.6-0.3,1-0.3s0.7,0.1,1,0.3s0.5,0.5,0.7,0.9s0.2,0.8,0.2,1.3s-0.1,1-0.2,1.3
		c-0.2,0.4-0.4,0.7-0.7,0.9c-0.3,0.2-0.6,0.3-1,0.3s-0.8-0.1-1-0.3c-0.3-0.2-0.5-0.5-0.7-0.9s-0.2-0.8-0.2-1.3
		C63.7,7.7,63.8,7.2,63.9,6.8L63.9,6.8z"/>
	<path class="st0" d="M73.5,4.9c-0.2-0.1-0.5-0.2-0.9-0.2c-0.8,0-1.4,0.4-1.9,1.1l-0.1-1h-1v6.6h1.2V6.7c0.5-0.6,1.1-1,1.8-1
		c0.2,0,0.3,0,0.5,0.1c0.2,0,0.3,0.1,0.4,0.2V4.9z"/>
	<path class="st0" d="M75.1,14.6c0.5,0,0.9-0.1,1.2-0.4s0.6-0.7,0.9-1.3c0.1-0.3,0.3-0.6,0.4-1c0.2-0.4,0.3-0.8,0.5-1.3
		s0.4-0.9,0.6-1.5c0.2-0.5,0.4-1,0.6-1.5s0.4-1,0.6-1.5s0.4-0.9,0.5-1.4h-1.3c-0.3,0.9-0.6,1.8-1,2.6c-0.3,0.9-0.7,1.8-1,2.6
		c-0.3-0.9-0.7-1.7-1-2.6s-0.6-1.8-0.9-2.7h-1.3c0.4,1.1,0.8,2.2,1.3,3.2s0.9,2.2,1.4,3.3c-0.1,0.2-0.2,0.5-0.3,0.7
		c-0.1,0.2-0.2,0.5-0.3,0.7c-0.1,0.3-0.3,0.5-0.5,0.6s-0.4,0.2-0.7,0.2c-0.2,0-0.3,0-0.5,0c-0.1,0-0.3-0.1-0.4-0.1v1
		c0.2,0.1,0.3,0.1,0.5,0.1C74.7,14.6,74.9,14.6,75.1,14.6z"/>
	<path class="st0" d="M85.5,8c0.3-1.2,0.7-2.4,1-3.5c0.3,1.2,0.7,2.4,1,3.5s0.7,2.4,1,3.5h1.3c0.5-1.5,0.9-3,1.3-4.6
		s0.8-3.1,1.2-4.7H91c-0.3,1.3-0.6,2.6-0.9,3.9c-0.3,1.3-0.7,2.6-1,3.8c-0.4-1.2-0.7-2.4-1-3.7c-0.3-1.2-0.7-2.5-1-3.7h-1.3
		c-0.6,2.5-1.3,4.9-2,7.4c-0.3-1.3-0.7-2.6-1-3.9s-0.6-2.6-0.9-3.9h-1.4c0.4,1.6,0.8,3.1,1.2,4.7c0.4,1.5,0.9,3.1,1.3,4.6h1.3
		C84.8,10.3,85.2,9.2,85.5,8z"/>
	<path class="st0" d="M92,8.2c0,0.5,0.1,1,0.2,1.5c0.1,0.4,0.4,0.8,0.6,1.1c0.3,0.3,0.6,0.5,1,0.7s0.8,0.2,1.3,0.2s0.9-0.1,1.3-0.2
		c0.4-0.2,0.7-0.4,1-0.7c0.3-0.3,0.5-0.7,0.6-1.1c0.2-0.4,0.2-0.9,0.2-1.5c0-0.7-0.1-1.3-0.4-1.8s-0.6-0.9-1.1-1.2s-1-0.4-1.7-0.4
		s-1.2,0.1-1.7,0.4c-0.5,0.3-0.8,0.7-1.1,1.2S92,7.5,92,8.2z M93.5,6.8c0.2-0.4,0.4-0.7,0.7-0.9s0.6-0.3,1-0.3s0.7,0.1,1,0.3
		s0.5,0.5,0.7,0.9s0.2,0.8,0.2,1.3s-0.1,1-0.2,1.3c-0.2,0.4-0.4,0.7-0.7,0.9c-0.3,0.2-0.6,0.3-1,0.3s-0.8-0.1-1-0.3
		c-0.3-0.2-0.5-0.5-0.7-0.9s-0.2-0.8-0.2-1.3C93.3,7.7,93.3,7.2,93.5,6.8L93.5,6.8z"/>
	<path class="st0" d="M100.6,6.8c0.5-0.6,1.1-1,1.8-1c0.2,0,0.3,0,0.5,0.1c0.2,0,0.3,0.1,0.4,0.2V4.9c-0.2-0.1-0.5-0.2-0.9-0.2
		c-0.8,0-1.4,0.4-1.9,1.1l-0.1-1h-1v6.6h1.2V6.8z"/>
	<path class="st0" d="M108.5,11.5h1.5c-0.5-0.6-1.1-1.2-1.6-1.8c-0.5-0.6-1.1-1.2-1.6-1.8c0.5-0.5,1-1,1.5-1.5s1-1,1.5-1.5h-1.4
		c-0.4,0.4-0.8,0.9-1.2,1.3s-0.8,0.9-1.3,1.3h-0.5V1.9h-1.2v9.7h1.2V8.5h0.5c0.5,0.5,0.9,1,1.3,1.5C107.5,10.4,108,11,108.5,11.5z"
		/>
	<path class="st0" d="M114.7,10.7c0.2-0.3,0.3-0.7,0.3-1.1s-0.1-0.7-0.2-0.9c-0.1-0.2-0.4-0.5-0.7-0.6c-0.3-0.2-0.8-0.3-1.3-0.5
		c-0.4-0.1-0.7-0.2-0.9-0.3s-0.3-0.2-0.4-0.3c-0.1-0.1-0.1-0.3-0.1-0.5c0-0.3,0.1-0.5,0.4-0.7c0.3-0.2,0.6-0.2,1.1-0.2
		c0.4,0,0.7,0.1,1.1,0.2c0.3,0.1,0.6,0.3,0.9,0.5V5.2c-0.5-0.3-1.2-0.5-2-0.5c-0.5,0-1,0.1-1.4,0.2c-0.4,0.2-0.7,0.4-0.9,0.7
		s-0.3,0.6-0.3,1c0,0.3,0.1,0.6,0.2,0.9c0.1,0.2,0.4,0.5,0.7,0.6c0.3,0.2,0.8,0.3,1.3,0.5c0.4,0.1,0.7,0.2,0.9,0.3s0.3,0.2,0.4,0.3
		c0.1,0.1,0.1,0.3,0.1,0.5c0,0.3-0.1,0.6-0.4,0.8c-0.3,0.2-0.6,0.3-1.1,0.3c-0.4,0-0.8-0.1-1.1-0.2c-0.4-0.1-0.7-0.3-1-0.5v1
		c0.3,0.2,0.6,0.3,1,0.4s0.8,0.1,1.2,0.1c0.6,0,1-0.1,1.4-0.2C114.1,11.3,114.5,11,114.7,10.7z"/>
	<path class="st0" d="M7.3,5.6c0.2-0.2,0.3-0.4,0.3-0.7C7.6,4.3,7.2,4,6.4,4H5.3v1.8h1.1C6.8,5.9,7.1,5.8,7.3,5.6z"/>
	<path class="st0" d="M16.4,13.1h13.1V0H16.4V13.1z M20.1,2.9h2.8c0.8,0,1.4,0.2,1.9,0.5c0.4,0.3,0.7,0.8,0.7,1.4
		c0,0.4-0.1,0.7-0.2,0.9c-0.2,0.3-0.4,0.5-0.7,0.6c0.4,0.1,0.8,0.4,1,0.7c0.2,0.3,0.3,0.7,0.3,1.1s-0.1,0.8-0.3,1.1
		c-0.2,0.3-0.5,0.6-1,0.7c-0.4,0.2-0.9,0.3-1.5,0.3h-2.9L20.1,2.9z"/>
	<path class="st0" d="M0,13.1h13.1V0H0V13.1z M3.7,2.9h2.8c0.8,0,1.4,0.2,1.9,0.5c0.4,0.3,0.7,0.8,0.7,1.4c0,0.4-0.1,0.7-0.2,0.9
		C8.7,6,8.5,6.2,8.2,6.3C8.6,6.4,9,6.7,9.2,7c0.2,0.3,0.3,0.7,0.3,1.1S9.4,8.9,9.2,9.2s-0.5,0.6-1,0.7c-0.4,0.2-0.9,0.3-1.5,0.3H3.8
		L3.7,2.9z"/>
	<path class="st0" d="M7.9,8.1c0-0.7-0.5-1-1.4-1H5.2v2h1.3c0.4,0,0.8-0.1,1-0.3C7.7,8.6,7.9,8.4,7.9,8.1z"/>
	<path class="st0" d="M23.6,5.6c0.2-0.2,0.3-0.4,0.3-0.7c0-0.6-0.4-0.9-1.2-0.9h-1.1v1.8h1.1C23.1,5.9,23.4,5.8,23.6,5.6z"/>
	<path class="st0" d="M24.3,8.1c0-0.7-0.5-1-1.4-1h-1.3v2h1.3c0.4,0,0.8-0.1,1-0.3C24.2,8.6,24.3,8.4,24.3,8.1z"/>
	<path class="st0" d="M32.7,13.1h13.1V0H32.7V13.1z M36.3,5c0.2-0.4,0.4-0.9,0.8-1.2c0.3-0.3,0.8-0.6,1.2-0.8c0.5-0.2,1-0.3,1.6-0.3
		c0.4,0,0.8,0,1.2,0.1c0.4,0.1,0.7,0.2,1,0.4v1.4c-0.3-0.2-0.6-0.3-0.9-0.4c-0.3-0.1-0.7-0.1-1-0.1c-0.5,0-0.9,0.1-1.3,0.3
		s-0.6,0.5-0.8,0.8c-0.2,0.4-0.3,0.8-0.3,1.3c0,0.5,0.1,0.9,0.3,1.3c0.2,0.4,0.5,0.6,0.8,0.8c0.3,0.2,0.8,0.3,1.3,0.3
		c0.7,0,1.5-0.2,2.1-0.6v1.4c-0.3,0.2-0.7,0.3-1.1,0.4s-0.8,0.1-1.3,0.1c-0.6,0-1.1-0.1-1.6-0.3c-0.5-0.2-0.9-0.4-1.2-0.7
		c-0.3-0.3-0.6-0.7-0.7-1.2c-0.2-0.5-0.3-1-0.3-1.6C36,6,36.1,5.5,36.3,5z"/>
</g>
</svg>
